# xmcd
#
# Track frame offsets: 
#        150
#        17285
#        33332
#        43680
#        58870
#        71105
#        90440
#        125507
#        141382
#        159817
#        176572
#        195477
#        217025
#        229617
#
# Disc length: 3293 seconds
#
# Revision: 0
# Processed by: cddbd v1.5.2PL0 Copyright (c) Steve Scherf et al.
# Submitted via: ExactAudioCopy v0.95a3
#
DISCID=bb0cdb0e
DTITLE=Reg Poole - I Love this land Australia
DYEAR=1988
DGENRE=Country
TTITLE0=I Love this land Australia
TTITLE1=Where country is
TTITLE2=The goondiwindi grey
TTITLE3=Three rivers hotel
TTITLE4=Song and dance man
TTITLE5=I was only 19
TTITLE6=The man from snowy River
TTITLE7=The Australian country hall of fame
TTITLE8=Now im Easy
TTITLE9=Rebecca
TTITLE10=Clancy of the overflow
TTITLE11=The Band played waltzing matilda
TTITLE12=Home among the gum trees
TTITLE13=True blue
EXTD=
EXTT0=
EXTT1=
EXTT2=
EXTT3=
EXTT4=
EXTT5=
EXTT6=
EXTT7=
EXTT8=
EXTT9=
EXTT10=
EXTT11=
EXTT12=
EXTT13=
PLAYORDER=
